<?xml version="1.0" encoding="UTF-8"?>
<svg id="Camada_1" data-name="Camada 1" xmlns="http://www.w3.org/2000/svg" viewBox="0 0 673.39 602.64">
  <defs>
    <style>
      .cls-1 {
        fill: #201554;
      }

      .cls-2 {
        fill: #2bcae5;
      }
    </style>
  </defs>
  <rect class="cls-1" x="-47.51" y="-1197.75" width="1216.75" height="1849.87"/>
  <path class="cls-2" d="M523.02,385.31l-99.72-95.37h-69.11l137.87-102.06v-40.59h-159.36c-31.71,0-57.5,25.8-57.5,57.5v51.06c0,18.8-15.3,34.1-34.1,34.1h-101.54v38.69h97.33l-96.9,71.73,23.02,31.1,112.18-83.04v49.43c0,31.7,25.79,57.5,57.5,57.5h158.33c16.51,0,31.66-9.36,38.59-23.84,7.43-15.55,4.96-33.2-6.59-46.2ZM313.88,271.63v-66.85c0-10.37,8.44-18.81,18.81-18.81h96.9l-115.71,85.66ZM313.88,328.63h91.49l89.19,82.95c.64.95.71,1.99.2,3.12-.58,1.3-1.6,1.96-3.03,1.96h-159.04c-10.37,0-18.81-8.44-18.81-18.81v-69.22Z"/>
</svg>