<?xml version="1.0" encoding="UTF-8"?>
<svg id="Camada_1" data-name="Camada 1" xmlns="http://www.w3.org/2000/svg" viewBox="0 0 995.52 292.27">
  <defs>
    <style>
      .cls-1 {
        fill: #201554;
      }

      .cls-2 {
        fill: #2bcae5;
      }

      .cls-3 {
        fill: #bd1fbf;
      }
    </style>
  </defs>
  <rect class="cls-1" x="-32.82" y="-35.19" width="1216.75" height="1849.87"/>
  <g>
    <path class="cls-2" d="M221.93,173.35l-32.31-30.9h-22.4l44.68-33.07v-13.15h-51.64c-10.27,0-18.63,8.36-18.63,18.63v16.54c0,6.09-4.96,11.05-11.05,11.05h-32.9v12.54h31.54l-31.4,23.24,7.46,10.08,36.35-26.91v16.02c0,10.27,8.36,18.63,18.63,18.63h51.31c11.95,0,18.23-13.85,10.37-22.7ZM154.15,136.52v-21.66c0-3.36,2.73-6.09,6.09-6.09h31.4l-37.5,27.76ZM154.15,154.99h29.65l28.9,26.88c.21.31.23.65.06,1.01-.19.42-.52.63-.98.63h-51.54c-3.36,0-6.09-2.73-6.09-6.09v-22.43Z"/>
    <g>
      <path class="cls-2" d="M259.28,110.59v28.93h47.8v13.24h-47.8v28.93h59.99v13.23h-73.23v-97.57h73.23v13.24h-59.99Z"/>
      <path class="cls-2" d="M422.52,97.42v13.75l9.92,6.06c.79.48.45,1.7-.48,1.7h-9.44v75.96l13.23.04v-97.51h-13.23Z"/>
      <path class="cls-2" d="M526.32,97.13h13.24v97.83h-26.73l-37.23-89.84c-.7-1.69-3.21-1.19-3.21.64v89.2h-13.24v-97.83h27.03l40.14,96.87v-96.87Z"/>
      <path class="cls-2" d="M329.28,97.27h86.33v13.23h-36.55v84.3h-13.23v-71.13c0-7.27-5.9-13.17-13.17-13.17h-23.38v-13.23Z"/>
      <path class="cls-2" d="M884.63,97.42v13.75l9.92,6.06c.79.48.45,1.7-.48,1.7h-9.44v75.96l13.23.04v-97.51h-13.23Z"/>
      <path class="cls-3" d="M751.57,194.95v-13.66h16.24v13.66h-16.24Z"/>
      <path class="cls-2" d="M741.81,194.8h-13.92l-6.91-21.08c-1.77-5.41-6.82-9.06-12.51-9.06h-34.41l-9.89,30.14h-13.92l31.99-97.54h27.58l31.99,97.54ZM715.59,154.82l-19.56-57.16-17.63,53.76h28.06c2.49,0,4.92.71,7.02,2.04l2.12,1.35Z"/>
      <path class="cls-2" d="M869.14,194.8h-13.92l-6.91-21.08c-1.77-5.41-6.82-9.06-12.51-9.06h-34.41l-9.89,30.14h-13.92l31.99-97.54h27.58l31.99,97.54ZM842.92,154.82l-19.56-57.16-17.63,53.76h28.06c2.49,0,4.92.71,7.02,2.04l2.12,1.35Z"/>
      <path class="cls-2" d="M621.32,97.13h13.24v97.83h-26.73l-37.23-89.84c-.7-1.69-3.21-1.19-3.21.64v89.2h-13.24v-97.83h27.03l40.14,96.87v-96.87Z"/>
    </g>
  </g>
</svg>